<svg width="91" height="91" viewBox="0 0 91 91" fill="none" xmlns="http://www.w3.org/2000/svg">
<g clip-path="url(#clip0_62_67)">
<path d="M45.5006 90.9992C70.6293 90.9992 91.0002 70.6283 91.0002 45.4996C91.0002 20.3709 70.6293 0 45.5006 0C20.3718 0 0.000976562 20.3709 0.000976562 45.4996C0.000976562 70.6283 20.3718 90.9992 45.5006 90.9992Z" fill="#55ACEE"/>
<path d="M73.3705 32.6992C71.4207 33.5638 69.3232 34.1485 67.1236 34.4097C69.3695 33.0641 71.093 30.9351 71.9065 28.394C69.805 29.6406 67.4764 30.5449 65.0002 31.0324C63.0163 28.9195 60.1897 27.5991 57.0598 27.5991C51.0546 27.5991 46.1841 32.4696 46.1841 38.4748C46.1841 39.3272 46.2806 40.157 46.4672 40.9534C37.4286 40.5001 29.4144 36.1705 24.0499 29.5887C23.1139 31.1946 22.577 33.0641 22.577 35.0569C22.577 38.8292 24.4984 42.1595 27.4151 44.1093C25.6331 44.0534 23.955 43.5643 22.4894 42.7475C22.4886 42.7938 22.4886 42.84 22.4886 42.8854C22.4886 48.155 26.239 52.5502 31.2133 53.5486C30.3017 53.7984 29.3389 53.9306 28.3486 53.9306C27.6462 53.9306 26.9657 53.8633 26.3023 53.7368C27.686 58.0565 31.7016 61.2011 36.4618 61.2895C32.739 64.2069 28.0501 65.9451 22.9534 65.9451C22.0774 65.9451 21.2095 65.8939 20.3604 65.7926C25.1708 68.8795 30.8889 70.6793 37.0303 70.6793C57.0347 70.6793 67.9744 54.1074 67.9744 39.7344C67.9744 39.2632 67.9639 38.7936 67.9428 38.328C70.0694 36.7951 71.913 34.8801 73.3705 32.6992Z" fill="#F1F2F2"/>
</g>
<defs>
<clipPath id="clip0_62_67">
<rect width="91" height="91" fill="white"/>
</clipPath>
</defs>
</svg>
