<svg width="89" height="89" viewBox="0 0 89 89" fill="none" xmlns="http://www.w3.org/2000/svg">
<g clip-path="url(#clip0_62_56)">
<path d="M89 44.5C89 19.9207 69.0793 0 44.5 0C19.9207 0 0 19.9207 0 44.5C0 66.7135 16.2634 85.1236 37.5504 88.4629V57.3737H26.2602V44.5H37.5504V34.6978C37.5504 23.5537 44.1819 17.3863 54.3508 17.3863C59.2267 17.3863 64.3234 18.2641 64.3234 18.2641V29.2118H58.7157C53.181 29.2118 51.474 32.6501 51.474 36.1615V44.5H63.8123L61.8376 57.3737H51.474V88.4629C72.7366 85.1236 89 66.7135 89 44.5Z" fill="#1877F2"/>
<path d="M61.8116 57.3737L63.788 44.4999H51.4497V36.1614C51.4497 32.6501 53.181 29.2118 58.6914 29.2118H64.299V18.2641C64.299 18.2641 59.2024 17.3862 54.3265 17.3862C44.1593 17.3862 37.526 23.5554 37.526 34.6978V44.4999H26.2359V57.3737H37.526V88.4628C39.7945 88.8279 42.1099 88.9999 44.4757 88.9999C46.8415 88.9999 49.1569 88.8053 51.4253 88.4628V57.3737H61.8116Z" fill="white"/>
</g>
<defs>
<clipPath id="clip0_62_56">
<rect width="89" height="89" fill="white"/>
</clipPath>
</defs>
</svg>
